<svg version="1.1" id="Layer_1" xmlns="http://www.w3.org/2000/svg" xmlns:xlink="http://www.w3.org/1999/xlink" x="0px" y="0px"
	 width="100%" viewBox="0 0 800 880" enable-background="new 0 0 800 880" xml:space="preserve">
<path fill="#374151" opacity="1.000000" stroke="none" 
	d="
M507.729828,92.190903 
	C542.757812,110.456673 571.424255,135.694031 595.775391,166.119827 
	C619.579956,195.862732 638.856934,228.219177 652.442078,263.850647 
	C658.479370,279.685486 662.272888,296.087799 661.244873,313.145020 
	C660.222595,330.108704 654.180420,344.928284 640.343445,355.720642 
	C627.428833,365.793610 612.935364,367.856323 597.373230,363.754395 
	C593.516968,362.737946 589.397949,361.895905 586.067444,359.873871 
	C578.530823,355.298187 571.261902,355.886414 563.224670,358.424438 
	C554.176697,361.281677 544.599487,361.880035 535.139954,362.708588 
	C503.348907,365.493256 471.935760,363.967682 441.306305,354.183746 
	C434.485138,352.004822 427.884583,349.166840 421.995331,344.941254 
	C419.271454,342.986908 417.618744,340.549011 417.634216,336.997040 
	C417.692871,323.504272 417.707977,310.010254 417.567596,296.518463 
	C417.531677,293.064697 418.864990,291.103882 421.903137,289.475525 
	C436.048309,281.894226 442.159882,269.402985 438.696381,255.741867 
	C435.398956,242.735855 422.214264,232.561279 408.365753,232.335831 
	C393.614441,232.095627 380.572144,241.785385 376.695343,255.865250 
	C373.262543,268.332550 379.366638,282.005371 391.995056,288.564514 
	C396.547821,290.929199 398.147736,293.803955 398.053528,298.719421 
	C397.823578,310.714386 397.861786,322.719879 398.084869,334.715698 
	C398.191528,340.450714 395.656799,344.207092 390.831329,346.768372 
	C373.951355,355.727936 355.739044,360.035950 336.916931,362.253662 
	C313.460205,365.017487 290.059021,364.294250 266.684662,361.281708 
	C259.407349,360.343781 252.176224,359.038208 245.221390,356.759186 
	C241.066254,355.397644 237.558655,355.908691 233.732346,357.664001 
	C223.539429,362.339905 213.099457,366.176178 201.562149,365.444641 
	C180.953476,364.137970 167.133926,353.166199 159.023743,334.804932 
	C152.313522,319.613129 152.931183,303.777405 156.128448,287.774323 
	C159.920319,268.795105 167.141647,251.115952 176.011139,234.097870 
	C194.991669,197.679611 217.903442,164.023529 247.837326,135.612793 
	C284.602356,100.718506 327.367798,77.135025 377.670380,68.302414 
	C404.830780,63.533329 431.707947,65.339912 458.279724,72.516678 
	C475.401306,77.141045 491.769989,83.646782 507.729828,92.190903 
M470.811340,314.083008 
	C470.004425,323.096130 474.067200,328.937256 482.844788,330.662079 
	C487.729767,331.621948 492.735657,332.280182 497.706848,332.433624 
	C520.719727,333.143982 535.795471,326.973236 546.370361,305.011780 
	C555.453369,286.148468 556.519897,265.994873 553.154419,245.902328 
	C546.768616,207.778671 527.574890,176.891663 496.885162,153.448715 
	C484.902252,144.295334 471.551483,137.419052 456.489288,134.546432 
	C453.536621,133.983307 450.726898,134.271683 449.076050,137.233429 
	C447.403961,140.233276 449.269409,142.167389 451.297638,144.118927 
	C479.605591,171.356659 498.163116,203.667862 501.754364,243.367645 
	C503.720459,265.101898 501.622894,285.523987 480.042206,298.356262 
	C474.805237,301.470245 471.806488,306.984283 470.811340,314.083008 
M329.727112,189.313919 
	C338.691223,172.616455 349.535278,157.346970 363.640320,144.538696 
	C365.809113,142.569290 367.789154,140.284348 366.029358,137.166122 
	C364.403717,134.285568 361.513763,133.855591 358.580414,134.623001 
	C352.951447,136.095657 347.315094,137.514465 341.928986,139.849701 
	C316.388824,150.923141 297.420502,169.350677 283.061371,192.751572 
	C270.537994,213.160721 261.867645,234.963089 261.049652,259.297241 
	C260.507629,275.420837 261.752777,291.198181 269.221588,305.964874 
	C276.934692,321.214478 288.591034,330.449554 306.034454,332.208008 
	C314.443176,333.055634 322.708710,332.456726 330.912598,331.318970 
	C341.340057,329.872833 346.440338,321.370148 343.830902,311.162964 
	C342.019531,304.077393 337.202148,299.397003 331.425964,295.481537 
	C324.501526,290.787750 318.864258,285.062592 316.345215,276.830078 
	C313.737213,268.306732 312.861694,259.494812 313.126587,250.678513 
	C313.771637,229.209946 319.520844,209.020950 329.727112,189.313919 
z"/>
<path fill="#374151" opacity="1.000000" stroke="none" 
	d="
M210.441925,503.432068 
	C247.314560,521.655334 270.317474,551.237915 283.528076,589.123047 
	C289.629333,606.620056 292.365021,624.554260 290.347961,643.101990 
	C290.016632,646.148682 289.197571,648.751587 286.167908,649.869995 
	C283.190613,650.969055 281.061493,649.108337 279.156433,647.167358 
	C267.260620,635.047302 256.051575,622.210938 242.719162,611.580750 
	C234.493866,605.022583 225.924133,598.988037 215.194504,597.085693 
	C200.833801,594.539795 188.392563,607.695862 191.780853,621.933044 
	C193.693115,629.968079 197.764282,636.645081 204.262115,641.860107 
	C216.682327,651.828186 218.891983,658.008240 213.988632,673.136963 
	C210.513336,683.859680 213.396210,692.388367 220.839249,699.991882 
	C229.883942,709.231567 237.973907,718.883972 240.500259,732.248047 
	C241.883179,739.563599 247.428726,745.056335 251.031647,751.407288 
	C251.852844,752.854797 252.775574,754.244385 253.631058,755.672913 
	C255.236221,758.353577 256.426758,761.245178 254.355469,764.057312 
	C252.421570,766.682800 249.463562,766.379333 246.560349,765.872375 
	C237.975800,764.373169 229.700104,761.742432 221.880203,758.039795 
	C164.170914,730.714600 122.057175,688.404114 99.029068,628.335876 
	C90.255867,605.451233 88.103424,581.417664 94.028709,557.622742 
	C101.470154,527.739014 117.483910,504.193390 149.043518,495.366455 
	C170.327591,489.413544 190.550797,494.424347 210.441925,503.432068 
z"/>
<path fill="#374151" opacity="1.000000" stroke="none" 
	d="
M640.615479,493.459625 
	C667.304382,489.860901 695.193481,504.364319 709.507935,528.717224 
	C722.905701,551.510681 726.558411,575.965637 722.703125,601.847168 
	C717.553955,636.414795 701.183960,665.708923 679.347839,692.118103 
	C656.996399,719.150574 630.089172,740.753845 598.253967,755.859619 
	C588.767761,760.360779 578.968872,764.106262 568.520752,765.842896 
	C565.648743,766.320251 562.780396,766.750061 560.787231,763.973999 
	C558.808044,761.217529 559.927429,758.526123 561.426941,756.035645 
	C563.488403,752.611816 565.623230,749.224304 567.887085,745.931641 
	C572.165955,739.708069 575.530457,733.196716 577.233276,725.682800 
	C579.447754,715.910645 585.968201,708.461121 592.832886,701.679077 
	C601.942932,692.678711 605.207275,682.939880 600.619202,670.489197 
	C596.713379,659.890076 599.624023,651.059448 608.571899,643.888428 
	C615.665344,638.203613 621.245422,631.798767 622.887512,622.429504 
	C626.035400,604.467957 612.231873,592.284424 595.018127,598.238892 
	C583.116821,602.355835 573.453125,610.135315 564.456116,618.593323 
	C554.869324,627.605652 545.811768,637.180359 536.499146,646.485535 
	C534.383179,648.599854 532.246399,651.213562 528.806763,649.913391 
	C525.276855,648.579041 524.961304,645.211548 524.782654,641.974182 
	C522.545105,601.437134 535.967896,566.400452 562.338318,536.055786 
	C578.995972,516.887573 599.140625,502.900116 623.956787,496.301331 
	C629.261719,494.890717 634.625854,493.649292 640.615479,493.459625 
z"/>
<path fill="#374151" opacity="1.000000" stroke="none" 
	d="
M468.599182,550.247314 
	C464.299561,543.652771 462.516388,536.847412 464.750977,529.526917 
	C465.784729,526.140381 464.889954,523.844788 462.544281,521.545593 
	C456.240387,515.366516 450.116364,509.002441 443.755402,502.883881 
	C440.911163,500.148041 439.673248,497.143341 439.684113,493.166016 
	C439.786652,455.688446 439.806519,418.210327 439.684692,380.732910 
	C439.670319,376.301147 440.880646,374.021332 445.609497,374.638824 
	C449.879700,375.196442 455.025452,372.535126 458.237366,375.244293 
	C461.583588,378.066681 459.546631,383.464661 459.669006,387.634949 
	C460.049500,400.598785 459.686951,413.584137 459.627960,426.561188 
	C459.531860,447.699371 459.461884,468.837708 459.336121,489.975708 
	C459.324097,491.996735 460.238068,493.427795 461.539825,494.801849 
	C466.234283,499.757050 470.913818,504.726837 475.556030,509.730927 
	C477.466278,511.790070 479.497192,513.295166 482.535095,512.453491 
	C495.185608,508.948456 507.935699,517.325562 511.492493,527.866821 
	C515.294739,539.135559 511.046326,551.084900 501.021515,556.859741 
	C489.936981,563.245056 478.048737,560.910522 468.599182,550.247314 
M496.982025,536.538208 
	C496.770538,533.039612 495.752441,529.997742 492.320801,528.328796 
	C487.451416,525.960632 482.015778,528.163513 480.079102,533.287659 
	C478.099823,538.524475 480.947906,543.754456 486.579681,545.224976 
	C491.595184,546.534546 495.767731,543.361328 496.982025,536.538208 
z"/>
<path fill="#374151" opacity="1.000000" stroke="none" 
	d="
M356.795441,377.276306 
	C358.570312,373.325073 361.812286,374.631226 364.406616,374.640961 
	C377.276550,374.689148 376.261200,372.900696 376.261505,386.300385 
	C376.262329,420.964844 376.142242,455.629761 376.314972,490.293304 
	C376.343658,496.051331 374.859314,500.493958 370.533966,504.428375 
	C364.623566,509.804596 359.262390,515.779663 353.488892,521.313538 
	C350.824829,523.867004 349.948547,526.308105 350.811951,530.130371 
	C353.632477,542.616760 347.402344,554.466003 336.312744,558.686890 
	C324.835907,563.055115 311.826599,558.901672 305.822906,548.503418 
	C301.051239,540.238831 300.863159,531.586243 306.099304,523.425598 
	C311.989105,514.246155 320.793640,510.488220 331.432312,512.172913 
	C335.489044,512.815369 338.095398,511.959229 340.602783,509.030670 
	C343.091858,506.123474 345.522675,503.011139 348.547791,500.749390 
	C355.593506,495.481659 356.946106,488.662384 356.846680,480.237152 
	C356.443573,446.078033 356.706177,411.911072 356.795441,377.276306 
M319.366730,540.885925 
	C322.839935,547.054688 331.732574,546.091553 334.369110,541.196594 
	C336.488281,537.262146 336.474487,533.435852 333.266266,530.160461 
	C330.271698,527.103210 326.635437,526.473572 322.763397,528.566406 
	C318.566284,530.834839 317.510376,534.236206 319.366730,540.885925 
z"/>
<path fill="#374151" opacity="1.000000" stroke="none" 
	d="
M397.757507,474.000000 
	C397.767456,443.015961 397.770599,412.531952 397.790222,382.047913 
	C397.794830,374.856567 398.814270,373.908691 405.898315,374.311066 
	C418.147675,375.006805 418.198730,375.006805 418.198700,387.454956 
	C418.198669,420.770599 418.266083,454.086914 418.074982,487.401611 
	C417.972778,505.217773 417.412598,523.031677 417.013458,540.845520 
	C416.907379,545.579224 415.979919,549.960632 410.475372,551.298706 
	C403.426117,553.012268 398.875366,549.348022 398.656097,541.937988 
	C397.990967,519.463440 397.611664,496.985260 397.757507,474.000000 
z"/>
<path fill="#374151" opacity="1.000000" stroke="none" 
	d="
M360.751953,742.683472 
	C369.855377,737.399231 378.604431,732.231812 387.436768,727.210754 
	C392.079071,724.571716 393.099060,725.095703 393.129089,730.151917 
	C393.225952,746.481079 393.161377,762.811157 393.234253,779.140564 
	C393.249176,782.487732 391.916534,784.739136 389.028870,786.463684 
	C375.157532,794.748108 361.371002,803.174438 347.520050,811.493286 
	C342.855103,814.294983 341.771393,813.685059 341.755859,808.231934 
	C341.708893,791.735596 341.799683,775.238708 341.697449,758.742920 
	C341.676544,755.373047 342.740387,753.120422 345.787476,751.470825 
	C350.764130,748.776489 355.560028,745.748291 360.751953,742.683472 
z"/>
<path fill="#374151" opacity="1.000000" stroke="none" 
	d="
M332.093964,801.947632 
	C331.760712,805.977661 332.959869,809.695801 331.200684,812.930603 
	C329.162689,813.653503 328.033783,812.451416 326.800446,811.701782 
	C312.860718,803.229004 298.958557,794.694031 284.984558,786.278320 
	C282.253204,784.633362 281.025085,782.475037 281.029907,779.344238 
	C281.055298,762.871399 280.980652,746.398376 281.035919,729.925659 
	C281.051880,725.171509 282.218719,724.492859 286.357208,726.917419 
	C300.289673,735.079773 314.118530,743.419373 328.069000,751.550537 
	C331.505981,753.553772 332.097595,756.473267 332.086121,759.991394 
	C332.041107,773.813232 332.083099,787.635437 332.093964,801.947632 
z"/>
<path fill="#374151" opacity="1.000000" stroke="none" 
	d="
M510.988220,736.939758 
	C518.181946,732.855774 525.055542,728.951355 532.303040,724.834534 
	C534.077637,729.453430 533.824402,733.483521 533.840332,737.327759 
	C533.898804,751.442505 533.563293,765.558472 533.452698,779.674561 
	C533.431580,782.369751 532.768982,784.459229 530.290649,785.950684 
	C515.610229,794.786133 500.976410,803.699219 486.330658,812.592346 
	C485.462372,813.119568 484.611511,813.630737 483.538574,813.190186 
	C482.480682,812.616028 482.462708,811.586121 482.465576,810.590271 
	C482.514679,793.450134 482.679840,776.309204 482.555359,759.170349 
	C482.527588,755.348999 483.802521,753.029785 487.089142,751.158264 
	C495.036560,746.632812 502.819031,741.817627 510.988220,736.939758 
z"/>
<path fill="#374151" opacity="1.000000" stroke="none" 
	d="
M462.988831,809.092651 
	C450.594604,801.522034 438.564270,794.058777 426.406189,786.809814 
	C423.033508,784.798950 421.524933,782.387817 421.570007,778.363953 
	C421.749023,762.372559 421.628937,746.377991 421.662231,730.384644 
	C421.665588,728.776306 421.216278,727.029419 422.706512,725.421326 
	C426.142639,725.317139 428.693085,727.741577 431.440002,729.350708 
	C443.796448,736.588623 455.969757,744.139587 468.339905,751.353455 
	C471.329254,753.096680 472.447418,755.132324 472.450867,758.535339 
	C472.467255,774.686218 472.713593,790.836792 472.852478,806.987732 
	C472.869385,808.955505 473.408234,811.332886 471.643188,812.614197 
	C469.608276,814.091431 468.016998,811.878967 466.311554,811.064453 
	C465.264130,810.564331 464.303833,809.881714 462.988831,809.092651 
z"/>
<path fill="#374151" opacity="1.000000" stroke="none" 
	d="
M334.049652,472.364777 
	C329.851746,485.123169 319.751007,492.206665 307.625488,491.249023 
	C296.145966,490.342407 287.243134,481.918701 285.131378,469.965515 
	C283.584503,461.209595 288.805450,450.791870 297.853424,445.880554 
	C301.209595,444.058777 302.159424,441.887573 302.135468,438.374908 
	C302.010559,420.073547 302.020477,401.771027 302.043915,383.468994 
	C302.054291,375.385590 302.498322,375.000183 310.468628,374.890930 
	C322.029694,374.732452 322.159515,374.735016 321.932068,386.275970 
	C321.565033,404.901001 322.669952,423.539703 321.378479,442.153137 
	C321.253815,443.949432 321.665100,445.332520 323.276001,446.411011 
	C332.435516,452.543060 335.539978,461.295593 334.049652,472.364777 
M301.286713,468.201569 
	C301.926910,471.882355 303.459656,474.829193 307.487854,475.707001 
	C312.580322,476.816681 317.530975,473.739471 318.528381,468.851685 
	C319.463409,464.269745 315.974487,459.568787 311.069092,458.801056 
	C305.804382,457.977020 302.192810,461.147827 301.286713,468.201569 
z"/>
<path fill="#374151" opacity="1.000000" stroke="none" 
	d="
M402.333496,659.057800 
	C402.332642,675.136841 402.332642,690.726379 402.332642,705.881348 
	C399.778137,707.423340 398.410583,706.140991 397.041565,705.347717 
	C383.367462,697.424133 369.746063,689.409241 356.041962,681.538269 
	C352.951447,679.763184 351.633270,677.467224 351.671326,673.870972 
	C351.840515,657.896790 351.783417,641.920349 351.886963,625.945251 
	C351.916473,621.395630 352.969971,620.721191 356.851105,622.948120 
	C371.131256,631.141846 385.334198,639.470032 399.580200,647.723511 
	C404.234619,650.420044 401.673492,654.889648 402.333496,659.057800 
z"/>
<path fill="#374151" opacity="1.000000" stroke="none" 
	d="
M429.495911,639.469910 
	C440.424438,633.205566 451.039642,627.129272 461.337219,621.234802 
	C463.939026,623.247498 463.296173,625.226074 463.301849,626.944702 
	C463.353546,642.591858 463.294312,658.239319 463.358154,673.886414 
	C463.370422,676.894836 462.928711,679.292053 459.952606,680.990112 
	C445.789825,689.070984 431.719910,697.314636 417.616730,705.499939 
	C416.476288,706.161865 415.356293,706.897827 413.973480,706.661255 
	C412.098877,705.236328 412.683075,703.254761 412.679016,701.529236 
	C412.642059,685.715454 412.765411,669.900696 412.627319,654.088074 
	C412.595612,650.458801 413.762421,648.235840 417.062408,646.611572 
	C421.233002,644.558838 425.153961,641.999084 429.495911,639.469910 
z"/>
<path fill="#374151" opacity="1.000000" stroke="none" 
	d="
M512.233826,378.381226 
	C512.297852,398.654144 512.391785,418.463837 512.277649,438.272278 
	C512.256714,441.891632 513.409912,443.966949 516.724182,445.658112 
	C526.928101,450.864990 531.905396,460.905609 529.860474,471.209717 
	C527.713806,482.026276 518.785034,490.092407 507.716095,491.214630 
	C497.467255,492.253693 487.039459,486.051971 482.787994,476.389221 
	C478.463409,466.560303 480.865051,455.472931 489.336761,448.361389 
	C492.073517,446.063995 492.974487,443.789825 492.934479,440.295929 
	C492.705811,420.322388 492.810242,400.345245 492.641724,380.370697 
	C492.607269,376.283234 494.140503,374.551086 498.222900,374.794891 
	C501.375824,374.983185 504.546661,374.856812 507.708984,374.906128 
	C509.835632,374.939270 511.721954,375.390259 512.233826,378.381226 
M508.578430,475.418884 
	C512.508789,473.681152 514.549866,470.555817 514.241516,466.373993 
	C513.978394,462.805420 511.836823,460.386047 508.280029,459.166016 
	C504.668549,457.927277 501.737152,458.888092 499.220062,461.432556 
	C496.393768,464.289673 496.455627,467.846588 497.841187,471.180756 
	C499.667908,475.576477 503.488800,476.386444 508.578430,475.418884 
z"/>
<path fill="#374151" opacity="1.000000" stroke="none" 
	d="
M510.884399,726.950562 
	C501.595795,732.536011 492.540253,737.804871 483.671234,743.370911 
	C479.665771,745.884583 476.244019,745.942749 472.145966,743.440186 
	C459.377014,735.642700 446.422150,728.149597 433.537201,720.542114 
	C432.261719,719.789001 430.851013,719.196472 430.273254,717.820374 
	C430.332611,715.982300 431.756744,715.550171 432.850616,714.911316 
	C446.346527,707.030090 459.875153,699.204834 473.359283,691.303589 
	C476.171722,689.655579 478.815643,689.226013 481.782227,690.968445 
	C495.401306,698.967834 509.068542,706.885254 522.708679,714.848816 
	C523.705750,715.430969 524.729614,716.054199 525.050781,718.083313 
	C521.179993,721.707764 515.692810,723.508545 510.884399,726.950562 
z"/>
<path fill="#374151" opacity="1.000000" stroke="none" 
	d="
M324.203491,696.145752 
	C333.136627,688.303589 341.200531,689.493774 350.293427,696.006470 
	C359.593140,702.667236 369.971863,707.818481 379.852081,713.674683 
	C381.518341,714.662292 383.572815,715.268738 384.283936,717.379883 
	C383.937531,719.392090 382.201355,719.964783 380.829590,720.776306 
	C368.081451,728.317749 355.281097,735.770935 342.541473,743.326660 
	C339.322388,745.235779 336.181396,746.163269 332.705566,744.086853 
	C319.129486,735.976318 305.539307,727.889282 291.976074,719.757385 
	C291.164337,719.270691 290.542145,718.467957 288.922760,716.973267 
	C300.905212,709.897705 312.395447,703.112732 324.203491,696.145752 
z"/>
<path fill="#374151" opacity="1.000000" stroke="none" 
	d="
M376.128784,623.927246 
	C370.444305,620.567993 365.071198,617.399170 360.017731,614.418884 
	C360.361847,612.379517 361.224030,611.862549 362.099670,611.362976 
	C375.693115,603.607910 389.289429,595.857849 402.879791,588.097290 
	C405.850555,586.400940 408.783264,586.144592 411.868347,587.905029 
	C425.316833,595.579468 438.797577,603.197327 452.254578,610.856812 
	C453.384918,611.500183 454.665497,612.089172 454.776520,613.716125 
	C454.316376,615.348572 452.802216,615.852478 451.535400,616.583313 
	C438.554993,624.071289 425.504456,631.440308 412.610260,639.073486 
	C408.987427,641.218201 405.997528,641.120789 402.448486,639.004456 
	C393.870270,633.889221 385.120667,629.061340 376.128784,623.927246 
z"/>
<path fill="#374151" opacity="1.000000" stroke="none" 
	d="
M242.299408,438.279297 
	C252.006012,431.762848 256.521606,423.593109 255.230011,411.674988 
	C254.124954,401.477997 255.108200,391.064331 254.958374,380.749542 
	C254.894836,376.375488 256.324188,374.182953 261.038269,374.608673 
	C264.174500,374.891907 267.360840,374.764954 270.517426,374.638702 
	C273.965332,374.500732 275.282196,376.118652 275.269684,379.441071 
	C275.208832,395.582062 275.260773,411.723480 275.189850,427.864380 
	C275.174652,431.323761 273.830261,434.303436 271.218719,436.704590 
	C255.913254,450.777130 240.649780,464.895386 225.328384,478.950531 
	C222.506638,481.539032 219.517548,483.925323 217.617462,487.362701 
	C217.149307,488.209595 216.453644,489.032227 215.664200,489.580261 
	C213.626511,490.994812 202.953079,488.164825 200.974960,485.431274 
	C198.439163,481.927155 199.473038,478.288910 202.061020,475.385132 
	C205.150391,471.918823 208.638962,468.793976 212.077835,465.656250 
	C222.031769,456.574066 232.047455,447.559570 242.299408,438.279297 
z"/>
<path fill="#374151" opacity="1.000000" stroke="none" 
	d="
M570.742676,461.278748 
	C561.963379,453.334656 553.505554,445.564453 544.928284,437.928406 
	C541.193726,434.603699 539.515381,430.755615 539.582947,425.652100 
	C539.783386,410.507263 539.721375,395.355774 539.501526,380.210632 
	C539.443237,376.195526 540.513245,374.481873 544.786621,374.568481 
	C561.698853,374.911438 559.023621,372.368805 559.200256,388.668945 
	C559.321045,399.820587 559.307190,410.975037 559.205200,422.126862 
	C559.178650,425.035919 560.154236,427.028046 562.351257,428.991577 
	C578.359253,443.298340 594.240356,457.747131 610.160095,472.152710 
	C611.891785,473.719696 613.585938,475.318970 614.633911,477.464844 
	C616.886536,482.077789 615.586426,485.446991 610.811646,487.347382 
	C608.648010,488.208557 606.497803,489.106934 604.313538,489.912445 
	C602.230042,490.680786 600.327332,490.332275 598.937378,488.514526 
	C590.982117,478.110687 580.327515,470.503998 570.742676,461.278748 
z"/>
</svg>